<?xml version="1.0" encoding="utf-8"?>
<!-- Generator: Adobe Illustrator 19.2.0, SVG Export Plug-In . SVG Version: 6.00 Build 0)  -->
<svg version="1.1" id="Layer_1" xmlns="http://www.w3.org/2000/svg" xmlns:xlink="http://www.w3.org/1999/xlink" x="0px" y="0px"
	 viewBox="0 0 595.3 841.9" style="enable-background:new 0 0 595.3 841.9;" xml:space="preserve">
<style type="text/css">
	.st0{fill:none;stroke:#00AEEF;stroke-width:2;stroke-miterlimit:10;}
	.st1{fill:none;stroke:#FFF200;stroke-width:2;stroke-miterlimit:10;}
	.st2{fill:none;stroke:#EC008C;stroke-width:2;stroke-miterlimit:10;}
	.st3{fill:#F47621;}
	.st4{fill:#F47621;stroke:#D7DF23;stroke-width:0.5;stroke-miterlimit:10;}
	.st5{font-family:'HarlequinFLF-Bold';}
	.st6{font-size:21px;}
</style>
<path class="st0" d="M365.1,292.4c-2.6,57.2-31.8,102.2-67.5,102.2c-35.7,0-64.9-45-67.5-102.2l8.4-7.3l17,7.3l15.5-13.8l9,13.8
	l9.5-7.3l16,7.3l9-18.8l12,18.8l16-13.8l4.5,13.8l9-6.8L365.1,292.4z"/>
<path class="st1" d="M236.6,294.9c2.4,48.1,28.8,93.4,61.1,93.4s58.7-45.4,61.1-93.4l-7.6-6.1l-15.4,6.1l-14-11.6l-8.1,11.6
	l-8.6-6.1l-14.5,6.1l-8.1-15.8l-10.9,15.8L257,283.3l-4.1,11.6l-8.1-5.7L236.6,294.9z"/>
<path class="st2" d="M356.2,300.5c-2.3,46.1-27.6,80.3-58.6,80.3c-30.9,0-56.3-34.3-58.6-80.3l7.3-5.9l14.7,5.9l13.4-11.1l7.8,11.1
	l8.2-5.9l13.9,5.9l7.8-15.1l10.4,15.1l13.9-11.1l3.9,11.1l7.8-5.5L356.2,300.5z"/>
<path class="st3" d="M255.3,324.3c1.7,29.9,20,53.4,42.4,53.4c22.4,0,40.7-23.5,42.4-53.4l-5.3-3.8l-10.7,3.8l-9.7-7.2l-5.6,7.2
	l-6-3.8l-10,3.8l-5.6-9.8l-7.5,9.8l-10-7.2l-2.8,7.2l-5.6-3.5L255.3,324.3z"/>
<text transform="matrix(1 0 0 1 257.5 321.0833)" class="st4 st5 st6">Eggshells</text>
</svg>
